<svg width="454" height="100" viewBox="0 0 454 100" fill="none" xmlns="http://www.w3.org/2000/svg">
<g clip-path="url(#clip0)">
<path d="M143.799 99.8008H141.099L139.999 97.0008H134.999L133.999 99.8008H131.299L136.199 87.3008H138.899L143.799 99.8008ZM139.199 94.8008L137.499 90.2008L135.799 94.8008H139.199Z" fill="#777777"/>
<path d="M152.698 95.2031V93.1031H158.098V98.1031C157.598 98.6031 156.798 99.1031 155.798 99.5031C154.798 99.9031 153.798 100.103 152.798 100.103C151.498 100.103 150.398 99.8031 149.398 99.3031C148.398 98.8031 147.698 98.0031 147.198 96.9031C146.698 95.9031 146.498 94.8031 146.498 93.6031C146.498 92.3031 146.798 91.1031 147.298 90.1031C147.798 89.1031 148.598 88.3031 149.698 87.8031C150.498 87.4031 151.498 87.2031 152.698 87.2031C154.298 87.2031 155.498 87.5031 156.298 88.2031C157.198 88.9031 157.698 89.7031 157.998 90.9031L155.498 91.4031C155.298 90.8031 154.998 90.3031 154.498 89.9031C153.998 89.5031 153.398 89.4031 152.698 89.4031C151.598 89.4031 150.698 89.7031 150.098 90.4031C149.398 91.1031 149.098 92.1031 149.098 93.5031C149.098 95.0031 149.398 96.1031 150.098 96.8031C150.798 97.5031 151.598 97.9031 152.698 97.9031C153.198 97.9031 153.798 97.8031 154.298 97.6031C154.798 97.4031 155.298 97.1031 155.698 96.8031V95.2031H152.698V95.2031Z" fill="#777777"/>
<path d="M162.299 99.8008V87.3008H167.599C168.899 87.3008 169.899 87.4008 170.499 87.6008C171.099 87.8008 171.599 88.2008 171.999 88.8008C172.399 89.4008 172.499 90.0008 172.499 90.8008C172.499 91.7008 172.199 92.5008 171.699 93.1008C171.099 93.7008 170.299 94.1008 169.199 94.3008C169.699 94.6008 170.199 95.0008 170.599 95.3008C170.999 95.7008 171.399 96.4008 171.999 97.3008L173.499 99.7008H170.499L168.699 97.0008C168.099 96.0008 167.599 95.4008 167.399 95.2008C167.199 94.9008 166.899 94.8008 166.599 94.7008C166.299 94.6008 165.899 94.6008 165.299 94.6008H164.799V99.8008H162.299V99.8008ZM164.799 92.6008H166.699C167.899 92.6008 168.699 92.5008 168.999 92.4008C169.299 92.3008 169.499 92.1008 169.699 91.9008C169.899 91.7008 169.999 91.3008 169.999 91.0008C169.999 90.6008 169.899 90.2008 169.699 90.0008C169.499 89.7008 169.199 89.6008 168.699 89.5008C168.499 89.5008 167.899 89.5008 166.899 89.5008H164.899V92.6008H164.799Z" fill="#777777"/>
<path d="M176.1 93.6016C176.1 92.3016 176.3 91.3016 176.7 90.4016C177 89.8016 177.4 89.2016 177.9 88.7016C178.4 88.2016 178.9 87.8016 179.5 87.6016C180.3 87.3016 181.2 87.1016 182.2 87.1016C184 87.1016 185.5 87.7016 186.6 88.8016C187.7 89.9016 188.3 91.5016 188.3 93.6016C188.3 95.6016 187.8 97.2016 186.7 98.3016C185.6 99.4016 184.1 100.002 182.3 100.002C180.4 100.002 179 99.4016 177.9 98.3016C176.6 97.2016 176.1 95.6016 176.1 93.6016ZM178.7 93.5016C178.7 94.9016 179 96.0016 179.7 96.7016C180.4 97.4016 181.2 97.8016 182.2 97.8016C183.2 97.8016 184 97.4016 184.7 96.7016C185.3 96.0016 185.7 94.9016 185.7 93.4016C185.7 92.0016 185.4 90.9016 184.8 90.2016C184.2 89.5016 183.3 89.1016 182.3 89.1016C181.3 89.1016 180.4 89.5016 179.8 90.2016C179 91.0016 178.7 92.1016 178.7 93.5016Z" fill="#777777"/>
<path d="M198.498 87.3008H203.498C204.498 87.3008 205.198 87.3008 205.698 87.4008C206.198 87.5008 206.598 87.7008 206.998 87.9008C207.398 88.2008 207.698 88.5008 207.998 88.9008C208.298 89.3008 208.398 89.8008 208.398 90.4008C208.398 91.0008 208.198 91.5008 207.898 92.0008C207.598 92.5008 207.198 92.9008 206.598 93.1008C207.398 93.3008 207.898 93.7008 208.398 94.2008C208.798 94.7008 208.998 95.4008 208.998 96.1008C208.998 96.7008 208.898 97.2008 208.598 97.8008C208.298 98.3008 207.998 98.8008 207.498 99.1008C206.998 99.4008 206.498 99.6008 205.798 99.7008C205.398 99.7008 204.398 99.8008 202.798 99.8008H198.498V87.3008ZM200.998 89.4008V92.3008H202.698C203.698 92.3008 204.298 92.3008 204.498 92.3008C204.898 92.2008 205.298 92.1008 205.498 91.9008C205.698 91.7008 205.898 91.3008 205.898 90.9008C205.898 90.5008 205.798 90.2008 205.598 90.0008C205.398 89.8008 205.098 89.6008 204.598 89.6008C204.298 89.6008 203.598 89.6008 202.398 89.6008H200.998V89.4008ZM200.998 94.3008V97.6008H203.298C204.198 97.6008 204.798 97.6008 204.998 97.5008C205.398 97.4008 205.698 97.3008 205.898 97.0008C206.098 96.7008 206.298 96.4008 206.298 95.9008C206.298 95.5008 206.198 95.2008 205.998 94.9008C205.798 94.6008 205.598 94.4008 205.198 94.3008C204.898 94.2008 204.098 94.1008 202.998 94.1008H200.998V94.3008Z" fill="#777777"/>
<path d="M212.799 87.3008H215.299V94.1008C215.299 95.2008 215.299 95.9008 215.399 96.2008C215.499 96.7008 215.799 97.1008 216.199 97.4008C216.599 97.7008 217.199 97.9008 217.899 97.9008C218.599 97.9008 219.199 97.8008 219.499 97.5008C219.899 97.2008 220.099 96.8008 220.199 96.4008C220.299 96.0008 220.299 95.3008 220.299 94.3008V87.4008H222.799V94.0008C222.799 95.5008 222.699 96.6008 222.599 97.2008C222.499 97.8008 222.199 98.3008 221.799 98.8008C221.399 99.2008 220.899 99.6008 220.299 99.8008C219.699 100.001 218.999 100.001 217.999 100.001C216.799 100.001 215.899 99.9008 215.299 99.6008C214.699 99.3008 214.199 99.0008 213.799 98.5008C213.399 98.1008 213.199 97.6008 213.099 97.1008C212.899 96.4008 212.899 95.3008 212.899 93.9008V87.3008H212.799Z" fill="#777777"/>
<path d="M226.6 95.7031L229.1 95.5031C229.2 96.3031 229.5 96.9031 230 97.3031C230.5 97.7031 231.1 97.9031 231.8 97.9031C232.6 97.9031 233.2 97.7031 233.6 97.4031C234 97.1031 234.2 96.7031 234.2 96.2031C234.2 95.9031 234.1 95.7031 233.9 95.4031C233.7 95.2031 233.4 95.0031 233 94.9031C232.7 94.8031 232 94.6031 231 94.4031C229.6 94.1031 228.7 93.7031 228.2 93.2031C227.4 92.5031 227 91.7031 227 90.7031C227 90.1031 227.2 89.5031 227.5 88.9031C227.9 88.3031 228.4 87.9031 229.1 87.6031C229.8 87.3031 230.6 87.2031 231.6 87.2031C233.2 87.2031 234.3 87.5031 235.1 88.2031C235.9 88.9031 236.3 89.8031 236.3 91.0031L233.8 91.1031C233.7 90.5031 233.5 90.0031 233.1 89.7031C232.7 89.4031 232.2 89.3031 231.5 89.3031C230.8 89.3031 230.2 89.5031 229.8 89.8031C229.5 90.0031 229.4 90.3031 229.4 90.6031C229.4 90.9031 229.5 91.1031 229.8 91.4031C230.1 91.7031 230.9 91.9031 232.1 92.2031C233.3 92.5031 234.2 92.8031 234.8 93.1031C235.4 93.4031 235.8 93.8031 236.2 94.4031C236.5 94.9031 236.7 95.6031 236.7 96.4031C236.7 97.1031 236.5 97.8031 236.1 98.4031C235.7 99.0031 235.1 99.5031 234.4 99.8031C233.7 100.103 232.8 100.303 231.7 100.303C230.1 100.303 228.9 99.9031 228.1 99.2031C227.2 98.2031 226.7 97.1031 226.6 95.7031Z" fill="#777777"/>
<path d="M240.498 99.8008V87.3008H242.998V99.8008H240.498Z" fill="#777777"/>
<path d="M247.199 99.8008V87.3008H249.699L254.799 95.6008V87.3008H257.099V99.8008H254.599L249.599 91.7008V99.8008H247.199Z" fill="#777777"/>
<path d="M261.498 99.8008V87.3008H270.798V89.4008H263.998V92.2008H270.298V94.3008H263.998V97.7008H270.998V99.8008H261.498V99.8008Z" fill="#777777"/>
<path d="M274.299 95.7031L276.799 95.5031C276.899 96.3031 277.199 96.9031 277.699 97.3031C278.199 97.7031 278.799 97.9031 279.499 97.9031C280.299 97.9031 280.899 97.7031 281.299 97.4031C281.699 97.1031 281.899 96.7031 281.899 96.2031C281.899 95.9031 281.799 95.7031 281.599 95.4031C281.399 95.2031 281.099 95.0031 280.699 94.9031C280.399 94.8031 279.699 94.6031 278.699 94.4031C277.299 94.1031 276.399 93.7031 275.899 93.2031C275.099 92.5031 274.699 91.7031 274.699 90.7031C274.699 90.1031 274.899 89.5031 275.199 88.9031C275.599 88.3031 276.099 87.9031 276.799 87.6031C277.499 87.3031 278.299 87.2031 279.299 87.2031C280.899 87.2031 281.999 87.5031 282.799 88.2031C283.599 88.9031 283.999 89.8031 283.999 91.0031L281.499 91.1031C281.399 90.5031 281.199 90.0031 280.799 89.7031C280.399 89.4031 279.899 89.3031 279.199 89.3031C278.499 89.3031 277.899 89.5031 277.499 89.8031C277.199 90.0031 277.099 90.3031 277.099 90.6031C277.099 90.9031 277.199 91.1031 277.499 91.4031C277.799 91.7031 278.599 91.9031 279.799 92.2031C280.999 92.5031 281.899 92.8031 282.499 93.1031C283.099 93.4031 283.499 93.8031 283.899 94.4031C284.199 94.9031 284.399 95.6031 284.399 96.4031C284.399 97.1031 284.199 97.8031 283.799 98.4031C283.399 99.0031 282.799 99.5031 282.099 99.8031C281.399 100.103 280.499 100.303 279.399 100.303C277.799 100.303 276.599 99.9031 275.799 99.2031C274.899 98.2031 274.399 97.1031 274.299 95.7031Z" fill="#777777"/>
<path d="M287.699 95.7031L290.199 95.5031C290.299 96.3031 290.599 96.9031 291.099 97.3031C291.599 97.7031 292.199 97.9031 292.899 97.9031C293.699 97.9031 294.299 97.7031 294.699 97.4031C295.099 97.1031 295.299 96.7031 295.299 96.2031C295.299 95.9031 295.199 95.7031 294.999 95.4031C294.799 95.2031 294.499 95.0031 294.099 94.9031C293.799 94.8031 293.099 94.6031 292.099 94.4031C290.699 94.1031 289.799 93.7031 289.299 93.2031C288.499 92.5031 288.099 91.7031 288.099 90.7031C288.099 90.1031 288.299 89.5031 288.599 88.9031C288.899 88.3031 289.499 87.9031 290.199 87.6031C290.899 87.3031 291.699 87.2031 292.699 87.2031C294.299 87.2031 295.399 87.5031 296.199 88.2031C296.999 88.9031 297.399 89.8031 297.399 91.0031L294.899 91.1031C294.799 90.5031 294.599 90.0031 294.199 89.7031C293.799 89.4031 293.299 89.3031 292.599 89.3031C291.899 89.3031 291.299 89.5031 290.899 89.8031C290.599 90.0031 290.499 90.3031 290.499 90.6031C290.499 90.9031 290.599 91.1031 290.899 91.4031C291.199 91.7031 291.999 91.9031 293.199 92.2031C294.399 92.5031 295.299 92.8031 295.899 93.1031C296.499 93.4031 296.899 93.8031 297.299 94.4031C297.599 94.9031 297.799 95.6031 297.799 96.4031C297.799 97.1031 297.599 97.8031 297.199 98.4031C296.799 99.0031 296.199 99.5031 295.499 99.8031C294.799 100.103 293.899 100.303 292.799 100.303C291.199 100.303 289.999 99.9031 289.199 99.2031C288.299 98.2031 287.799 97.1031 287.699 95.7031Z" fill="#777777"/>
<path d="M308.199 99.8008V87.3008H310.699V99.8008H308.199Z" fill="#777777"/>
<path d="M314.898 99.8008V87.3008H317.398L322.498 95.6008V87.3008H324.798V99.8008H322.298L317.298 91.7008V99.8008H314.898Z" fill="#777777"/>
<path d="M331.999 99.8008V89.4008H328.299V87.3008H338.199V89.4008H334.499V99.8008H331.999V99.8008Z" fill="#777777"/>
<path d="M341.599 99.8008V87.3008H350.899V89.4008H344.199V92.2008H350.499V94.3008H344.199V97.7008H351.199V99.8008H341.599V99.8008Z" fill="#777777"/>
<path d="M355.099 99.8023V87.4023H357.599V97.7023H363.899V99.8023H355.099Z" fill="#777777"/>
<path d="M367.499 99.8023V87.4023H369.999V97.7023H376.299V99.8023H367.499Z" fill="#777777"/>
<path d="M379.699 99.8008V87.3008H382.199V99.8008H379.699Z" fill="#777777"/>
<path d="M392.199 95.2031V93.1031H397.599V98.1031C397.099 98.6031 396.299 99.1031 395.299 99.5031C394.299 99.9031 393.299 100.103 392.299 100.103C390.999 100.103 389.899 99.8031 388.899 99.3031C387.899 98.8031 387.199 98.0031 386.699 96.9031C386.199 95.9031 385.999 94.8031 385.999 93.6031C385.999 92.3031 386.299 91.1031 386.799 90.1031C387.299 89.1031 388.099 88.3031 389.199 87.8031C389.999 87.4031 390.999 87.2031 392.199 87.2031C393.799 87.2031 394.999 87.5031 395.799 88.2031C396.699 88.9031 397.199 89.7031 397.499 90.9031L394.999 91.4031C394.799 90.8031 394.499 90.3031 393.999 89.9031C393.499 89.5031 392.899 89.4031 392.199 89.4031C391.099 89.4031 390.199 89.7031 389.599 90.4031C388.899 91.1031 388.599 92.1031 388.599 93.5031C388.599 95.0031 388.899 96.1031 389.599 96.8031C390.299 97.5031 391.099 97.9031 392.199 97.9031C392.699 97.9031 393.299 97.8031 393.799 97.6031C394.299 97.4031 394.799 97.1031 395.199 96.8031V95.2031H392.199V95.2031Z" fill="#777777"/>
<path d="M401.699 99.8008V87.3008H410.999V89.4008H404.299V92.2008H410.599V94.3008H404.299V97.7008H411.299V99.8008H401.699V99.8008Z" fill="#777777"/>
<path d="M415.099 99.8008V87.3008H417.599L422.699 95.6008V87.3008H424.999V99.8008H422.499L417.499 91.7008V99.8008H415.099Z" fill="#777777"/>
<path d="M437.499 95.2031L439.899 96.0031C439.499 97.4031 438.899 98.4031 437.999 99.0031C437.099 99.7031 435.999 100.003 434.699 100.003C432.999 100.003 431.699 99.4031 430.599 98.3031C429.499 97.2031 428.999 95.6031 428.999 93.7031C428.999 91.6031 429.499 90.0031 430.599 88.9031C431.699 87.8031 433.099 87.2031 434.799 87.2031C436.299 87.2031 437.599 87.7031 438.499 88.6031C439.099 89.1031 439.499 89.9031 439.799 90.9031L437.299 91.5031C437.199 90.9031 436.799 90.3031 436.399 90.0031C435.999 89.7031 435.399 89.4031 434.699 89.4031C433.799 89.4031 432.999 89.7031 432.399 90.4031C431.799 91.1031 431.499 92.1031 431.499 93.6031C431.499 95.2031 431.799 96.3031 432.399 97.0031C432.999 97.7031 433.699 98.0031 434.599 98.0031C435.299 98.0031 435.799 97.8031 436.299 97.4031C436.899 96.8031 437.199 96.1031 437.499 95.2031Z" fill="#777777"/>
<path d="M443.799 99.8008V87.3008H453.099V89.4008H446.399V92.2008H452.699V94.3008H446.399V97.7008H453.399V99.8008H443.799V99.8008Z" fill="#777777"/>
<path d="M435.299 28.8008H453.899V69.6008H435.299V28.8008Z" fill="#FFD800"/>
<path d="M435.299 2.89844H453.899V21.4984H435.299V2.89844Z" fill="#00A1FF"/>
<path d="M366.799 2.89844H400.999C409.399 2.89844 415.299 4.99844 419.199 8.89844C421.899 11.5984 423.499 15.0984 423.499 19.8984C423.499 27.5984 419.099 32.1984 413.199 34.7984C421.299 37.4984 426.399 41.9984 426.399 51.2984C426.399 62.6984 417.099 69.6984 401.199 69.6984H366.799V2.89844ZM396.399 29.3984C401.999 29.3984 405.199 27.4984 405.199 23.3984C405.199 19.7984 402.299 17.6984 396.799 17.6984H384.799V29.3984H396.399ZM399.099 54.6984C404.699 54.6984 407.999 52.4984 407.999 48.3984C407.999 44.7984 405.099 42.3984 398.999 42.3984H384.899V54.6984H399.099Z" fill="#505050"/>
<path d="M130.799 2.89844H180.399V13.5984H142.499V31.7984H176.099V42.4984H142.499V69.5984H130.799V2.89844Z" fill="#505050"/>
<path d="M192.1 0.601562H204.5V11.6016H192.1V0.601562ZM192.6 19.2016H204.1V69.5016H192.6V19.2016Z" fill="#505050"/>
<path d="M216.398 44.3992C216.398 29.9992 226.598 18.1992 240.998 18.1992C256.998 18.1992 265.098 30.7992 265.098 45.1992C265.098 45.9992 264.998 47.8992 264.898 48.3992H227.898C229.098 56.5992 234.898 61.1992 242.398 61.1992C247.998 61.1992 251.998 59.0992 255.998 55.1992L262.798 61.1992C257.998 66.8992 251.498 70.5992 242.198 70.5992C227.598 70.6992 216.398 60.0992 216.398 44.3992ZM253.598 40.8992C252.798 33.4992 248.498 27.6992 240.798 27.6992C233.798 27.6992 228.798 33.0992 227.798 40.8992H253.598Z" fill="#505050"/>
<path d="M277.299 0H288.799V69.5H277.299V0Z" fill="#505050"/>
<path d="M301.299 44.3C301.299 27.6 312.599 18.2 324.599 18.2C332.899 18.2 338.099 22.4 341.699 27.1V0H353.199V69.5H341.699V61.1C337.999 66.3 332.699 70.5 324.599 70.5C312.899 70.6 301.299 61.1 301.299 44.3ZM341.999 44.3C341.999 34.6 335.099 28.2 327.399 28.2C319.499 28.2 312.899 34.3 312.899 44.5C312.899 54.2 319.599 60.6 327.399 60.6C335.199 60.6 341.999 54.1 341.999 44.3Z" fill="#505050"/>
<path d="M45.7997 1.89844L4.09966 32.4984C0.599655 34.9984 -0.800345 39.4984 0.499655 43.5984L16.4997 93.0984C17.7997 97.1984 21.6997 99.9984 25.9997 99.9984H77.4997C81.7997 99.9984 85.6997 97.1984 86.9997 93.0984L103 43.5984C104.3 39.4984 102.9 34.9984 99.3997 32.4984L57.5997 1.89844C53.9997 -0.601562 49.2997 -0.601562 45.7997 1.89844Z" fill="white"/>
<path d="M24.5997 62.1984C19.8997 67.2984 15.5997 72.6984 11.6997 78.1984L0.499655 43.5984C-0.800345 39.4984 0.599655 34.9984 4.09966 32.3984L45.7997 1.89844C49.2997 -0.601562 53.9997 -0.601562 57.4997 1.89844L80.2997 18.5984C75.4997 21.1984 70.4997 24.1984 65.1997 27.6984C49.7997 37.7984 36.1997 49.3984 24.5997 62.1984Z" fill="#00A1FF"/>
<path d="M61.8996 66.5988C73.6996 67.6988 83.8996 70.6988 92.5996 75.3988L86.8996 92.9988C85.5996 97.0988 81.7996 99.8988 77.4996 99.8988H25.8996C21.5996 99.8988 17.7996 97.0988 16.4996 92.9988L15.5996 90.0988C20.9996 81.7988 26.9996 74.2988 33.1996 67.5988C37.1996 66.8988 48.4996 65.3988 61.8996 66.5988Z" fill="#FFD800"/>
<path d="M102.8 43.5977L95.6 65.7977C94.5 65.1977 93.3 64.6977 92.2 64.1977C83.5 60.2977 73.6 57.6977 62.8 56.6977C56 55.9977 49.7 55.9977 44.5 56.2977C53.4 48.0977 62.4 41.4977 70.4 36.1977C77.1 31.7977 83.5 28.0977 89.3 25.0977L99.3 32.3977C102.7 34.9977 104.2 39.4977 102.8 43.5977Z" fill="#00DE8A"/>
</g>
<defs>
<clipPath id="clip0">
<rect width="453.8" height="100" fill="white"/>
</clipPath>
</defs>
</svg>
