
<svg viewBox="0 0 568 350" fill="none" xmlns="http://www.w3.org/2000/svg">
<g clip-path="url(#clip0)">
<g opacity="0.22">
<path d="M305.41 51.4315C246.547 70.2247 60.1017 -22.4447 74.6944 104.135C76.9758 122.957 89.0975 149.542 78.8588 167.114C71.4398 180.274 57.8413 187.984 44.7074 193.101C10.3967 207.048 -2.37924 233.229 6.31049 270.592C29.5523 371.273 156.074 347.397 222.493 317.544C269.729 295.329 325.438 291.512 374.35 310.305C412.669 325.608 436.556 357.709 481.531 348.305C521.417 340.301 527.434 302.646 515.788 267.592C509.172 245.905 504.419 236.742 517.544 215.808C528.604 195.018 548.07 179.264 549.568 154.908C549.895 128.528 537.772 101.944 514.314 91.9535C495.119 83.7781 477.722 87.0793 458.734 82.0531C416.499 70.1826 389.358 4.56294 336.964 27.1295C323.899 33.2971 316.549 47.5063 302.315 51.6451" fill="#E1E8F6"/>
</g>
<g opacity="0.3">
<path d="M284.066 42.3929C289.4 42.3929 289.4 34.1212 284.066 34.1212C278.732 34.1212 278.732 42.3929 284.066 42.3929Z" fill="#E1E8F6"/>
</g>
<g opacity="0.3">
<path d="M39.0196 169.569C49.6885 169.569 49.6885 153.025 39.0196 153.025C28.3507 153.025 28.3507 169.569 39.0196 169.569Z" fill="#E1E8F6"/>
</g>
<g opacity="0.3">
<path d="M536.351 235.534C547.02 235.534 547.02 218.991 536.351 218.991C525.684 218.991 525.684 235.534 536.351 235.534Z" fill="#E1E8F6"/>
</g>
<g opacity="0.3">
<path d="M256.15 38.257C266.819 38.257 266.819 21.7138 256.15 21.7138C245.481 21.7138 245.481 38.257 256.15 38.257Z" fill="#E1E8F6"/>
</g>
<g opacity="0.3">
<path d="M552.894 209.272C566.764 209.272 566.764 187.766 552.894 187.766C539.027 187.766 539.027 209.272 552.894 209.272Z" fill="#E1E8F6"/>
</g>
<g opacity="0.3">
<path d="M11.1036 196.865C24.9728 196.865 24.9728 175.359 11.1036 175.359C-2.76572 175.359 -2.76572 196.865 11.1036 196.865Z" fill="#E1E8F6"/>
</g>
<g opacity="0.3">
<path d="M470.178 67.6199C484.047 67.6199 484.047 46.1136 470.178 46.1136C456.31 46.1151 456.31 67.6199 470.178 67.6199Z" fill="#E1E8F6"/>
</g>
<g opacity="0.3">
<path d="M279.93 24.8149C295.934 24.8149 295.934 0 279.93 0C263.928 0 263.928 24.8149 279.93 24.8149Z" fill="#E1E8F6"/>
</g>
<g opacity="0.3">
<path d="M561.787 228.709C569.788 228.709 569.788 216.302 561.787 216.302C553.786 216.302 553.786 228.709 561.787 228.709Z" fill="#E1E8F6"/>
</g>
<g opacity="0.3">
<path d="M8.20843 162.332C16.2094 162.332 16.2094 149.924 8.20843 149.924C0.205996 149.924 0.205996 162.332 8.20843 162.332Z" fill="#E1E8F6"/>
</g>
<g opacity="0.3">
<path d="M496.028 79.6152C504.029 79.6152 504.029 67.2078 496.028 67.2078C488.027 67.2078 488.027 79.6152 496.028 79.6152Z" fill="#E1E8F6"/>
</g>
<g opacity="0.3">
<path d="M493.96 56.8683C499.294 56.8683 499.294 48.5966 493.96 48.5966C488.625 48.5966 488.625 56.8683 493.96 56.8683Z" fill="#E1E8F6"/>
</g>
<g opacity="0.3">
<path d="M75.0027 42.5974C85.6716 42.5974 85.6716 26.0541 75.0027 26.0541C64.3338 26.0541 64.3338 42.5974 75.0027 42.5974Z" fill="#E1E8F6"/>
</g>
<g opacity="0.3">
<path d="M545.657 327.764C556.326 327.764 556.326 311.221 545.657 311.221C534.989 311.221 534.989 327.764 545.657 327.764Z" fill="#E1E8F6"/>
</g>
<g opacity="0.3">
<path d="M8.00092 335.003C18.6698 335.003 18.6698 318.459 8.00092 318.459C-2.66648 318.459 -2.66648 335.003 8.00092 335.003Z" fill="#E1E8F6"/>
</g>
<g opacity="0.3">
<path d="M99.8176 30.19C105.152 30.19 105.152 21.9183 99.8176 21.9183C94.4832 21.9183 94.4832 30.19 99.8176 30.19Z" fill="#E1E8F6"/>
</g>
<g opacity="0.3">
<path d="M546.691 294.678C552.025 294.678 552.025 286.406 546.691 286.406C541.356 286.406 541.356 294.678 546.691 294.678Z" fill="#E1E8F6"/>
</g>
<g opacity="0.3">
<path d="M32.8158 345.342C38.1503 345.342 38.1503 337.071 32.8158 337.071C27.4814 337.071 27.4814 345.342 32.8158 345.342Z" fill="#E1E8F6"/>
</g>
<path d="M150.896 206.074C145.324 208.042 141.645 208.418 138.791 202.783C136.592 198.444 135.125 193.962 132.358 189.9C126.361 181.096 120.552 180.505 110.948 181.759C101.416 183.005 88.4133 180.57 86.9665 169.546C85.9348 161.689 85.8746 154.466 82.4351 147.116C80.7417 143.495 75.3937 146.647 77.0781 150.247C80.8936 158.402 79.2257 167.281 82.0185 175.587C84.852 184.015 94.2861 186.733 102.218 187.679C108.211 188.393 113.458 186.948 119.334 186.956C125.645 186.963 129.953 197.788 131.954 202.539C136.123 212.446 142.03 215.769 152.546 212.055C156.29 210.733 154.678 204.738 150.896 206.074Z" fill="#222221"/>
<path d="M85.3362 138.744C83.4788 141.177 81.2079 142.696 78.5053 144.057C75.6463 145.498 78.1609 149.778 81.0109 148.344C84.5241 146.573 87.2296 144.382 89.6224 141.249C90.4451 140.171 89.7908 138.475 88.7321 137.854C87.4552 137.108 86.1558 137.672 85.3362 138.744Z" fill="#222221"/>
<path d="M76.4495 132.139C76.463 137.386 77.2285 142.606 77.2766 147.855C77.3052 151.054 82.2682 151.057 82.2396 147.855C82.1915 142.604 81.426 137.386 81.4125 132.139C81.4034 128.938 76.4405 128.938 76.4495 132.139Z" fill="#222221"/>
<path d="M68.0786 137.202C71.3993 141.353 74.7711 145.495 79.3325 148.344C82.0562 150.043 84.5452 145.748 81.8381 144.057C77.6737 141.457 74.6162 137.478 71.5873 133.694C69.587 131.194 66.0994 134.731 68.0786 137.202Z" fill="#222221"/>
<path d="M63.9428 144.645C68.5598 149.011 74.3154 150.458 80.4184 148.593C83.4698 147.661 82.1689 142.869 79.0994 143.806C74.6929 145.154 70.8233 144.323 67.4514 141.137C65.1279 138.939 61.6117 142.444 63.9428 144.645Z" fill="#222221"/>
<path d="M404.626 221.472C404.849 213.365 407.559 210.661 415.385 210.023C420.47 209.608 425.628 209.678 430.656 208.741C438.332 207.313 438.189 196.725 441.158 191.261C445.694 182.916 457.879 183.802 465.743 181.337C474.407 178.621 477.732 171.286 478.243 162.744C478.483 158.746 472.277 158.769 472.04 162.744C471.279 175.452 461.959 175.894 451.722 178.001C442.698 179.857 436.586 184.803 433.45 193.499C432.468 196.221 432.229 201.896 429.008 202.759C423.762 204.167 417.724 203.523 412.326 204.108C402.184 205.206 398.688 211.847 398.422 221.472C398.312 225.474 404.516 225.464 404.626 221.472Z" fill="#222221"/>
<path d="M463.651 155.131C465.771 160.187 469.426 163.843 474.484 165.964C475.733 166.487 477.212 165.409 477.535 164.23C477.929 162.799 477.049 161.7 475.803 161.177C472.541 159.81 469.805 157.072 468.436 153.812C467.913 152.565 466.815 151.684 465.385 152.078C464.206 152.404 463.126 153.881 463.651 155.131Z" fill="#222221"/>
<path d="M471.005 148.682C471.005 152.818 471.005 156.954 471.005 161.089C471.005 164.29 475.97 164.29 475.97 161.089C475.97 156.954 475.97 152.818 475.97 148.682C475.97 145.482 471.005 145.482 471.005 148.682Z" fill="#222221"/>
<path d="M479.367 149.676C477.863 154.015 475.266 157.28 471.733 160.161C469.253 162.186 472.786 165.675 475.243 163.67C479.45 160.238 482.372 156.128 484.152 150.995C485.204 147.963 480.408 146.673 479.367 149.676Z" fill="#222221"/>
<path d="M485.407 154.874C483.244 158.301 479.828 160.491 476.136 162.005C473.217 163.202 474.493 168.006 477.455 166.792C482.4 164.765 486.789 161.983 489.693 157.381C491.406 154.665 487.109 152.176 485.407 154.874Z" fill="#222221"/>
<path d="M434.201 311.356C434.201 315.697 401.71 316.957 398.198 316.957H155.047C151.539 316.957 119.042 315.697 119.042 311.356L148.692 266.912C148.692 262.572 151.539 259.054 155.047 259.054H398.198C401.71 259.054 404.552 262.572 404.552 266.912L434.201 311.356Z" fill="#B3B3B3"/>
<path d="M226.619 301.456H164.127L175.062 274.987H231.583L226.619 301.456Z" fill="#3E3E3D"/>
<path d="M326.626 301.456H389.117L378.179 274.987H321.661L326.626 301.456Z" fill="#3E3E3D"/>
<path d="M396.062 301.456H418.068L400.061 274.987H383.461L396.062 301.456Z" fill="#3E3E3D"/>
<path d="M157.185 301.456H135.178L153.186 274.987H169.784L157.185 301.456Z" fill="#3E3E3D"/>
<path d="M321.129 301.456H232.114L237.077 274.987H316.166L321.129 301.456Z" fill="#3E3E3D"/>
<path d="M412.639 279.817H140.61V283.869H412.639V279.817Z" fill="#B3B3B3"/>
<path d="M415.588 289.743H137.661V293.795H415.588V289.743Z" fill="#B3B3B3"/>
<path d="M435.866 321.651C435.866 325.16 435.139 328.003 431.633 328.003H121.614C118.102 328.003 117.38 325.16 117.38 321.651V316.204C117.38 312.695 118.102 309.851 121.614 309.851H431.633C435.139 309.851 435.866 312.695 435.866 316.204V321.651Z" fill="#3E3E3D"/>
<path d="M334.73 319.079C334.73 320.906 333.251 322.388 331.423 322.388H221.824C219.995 322.388 218.516 320.906 218.516 319.079C218.516 317.252 219.995 315.771 221.824 315.771H331.423C333.249 315.769 334.73 317.252 334.73 319.079Z" fill="#6F6F6F"/>
<path d="M407.728 260.913C407.728 264.422 404.885 267.269 401.373 267.269H151.872C148.362 267.269 145.516 264.422 145.516 260.913V98.1377C145.516 94.629 148.362 91.7836 151.872 91.7836H401.373C404.885 91.7836 407.728 94.629 407.728 98.1377V260.913Z" fill="#3E3E3D"/>
<path d="M276.623 100.622C280.037 100.622 280.037 95.3268 276.623 95.3268C273.209 95.3268 273.209 100.622 276.623 100.622Z" fill="white"/>
<path d="M389.374 250.682C389.374 253.7 386.928 256.147 383.912 256.147H169.335C166.319 256.147 163.869 253.7 163.869 250.682V110.699C163.869 107.68 166.319 105.233 169.335 105.233H383.912C386.928 105.233 389.374 107.68 389.374 110.699V250.682Z" fill="white"/>
<path d="M225.079 183.17C224.444 183.17 223.808 182.928 223.324 182.444C222.355 181.475 222.355 179.904 223.324 178.935L242.042 160.22C243.012 159.252 244.582 159.252 245.55 160.22C246.519 161.189 246.519 162.76 245.55 163.729L226.832 182.444C226.348 182.928 225.713 183.17 225.079 183.17Z" fill="#425973"/>
<path d="M243.796 183.173C243.162 183.173 242.526 182.931 242.041 182.447L223.325 163.73C222.355 162.762 222.355 161.19 223.325 160.221C224.293 159.251 225.865 159.251 226.834 160.221L245.55 178.938C246.52 179.906 246.52 181.478 245.55 182.447C245.067 182.929 244.431 183.173 243.796 183.173Z" fill="#425973"/>
<path d="M309.448 183.17C308.813 183.17 308.177 182.928 307.693 182.444C306.724 181.475 306.724 179.904 307.693 178.935L326.411 160.22C327.381 159.252 328.951 159.252 329.919 160.22C330.888 161.189 330.888 162.76 329.919 163.729L311.201 182.444C310.719 182.928 310.084 183.17 309.448 183.17Z" fill="#425973"/>
<path d="M328.168 183.173C327.533 183.173 326.897 182.931 326.413 182.447L307.698 163.73C306.729 162.762 306.729 161.19 307.698 160.222C308.666 159.253 310.238 159.253 311.207 160.222L329.922 178.938C330.89 179.907 330.89 181.478 329.922 182.447C329.437 182.93 328.803 183.173 328.168 183.173Z" fill="#425973"/>
<path d="M319.766 203.275V221.748C319.766 225.404 316.802 228.365 313.149 228.365H309.58C305.926 228.365 302.963 225.402 302.963 221.748V203.275" fill="#DD9AB2"/>
<path d="M314.265 204.24L311.364 225.746L308.461 204.24H314.265Z" fill="#D6819F"/>
<path d="M332.709 205.323H220.535C219.394 205.323 218.467 204.397 218.467 203.255C218.467 202.114 219.394 201.187 220.535 201.187H332.709C333.851 201.187 334.777 202.114 334.777 203.255C334.777 204.397 333.851 205.323 332.709 205.323Z" fill="#425973"/>
<path d="M202.178 200.518C212.847 200.518 212.847 183.975 202.178 183.975C191.509 183.975 191.509 200.518 202.178 200.518Z" fill="#E9C2D0"/>
<path d="M351.068 200.518C361.737 200.518 361.737 183.975 351.068 183.975C340.399 183.975 340.399 200.518 351.068 200.518Z" fill="#E9C2D0"/>
<path d="M365.13 70.1014C365.13 88.299 365.13 106.497 365.13 124.694C365.13 130.029 373.401 130.029 373.401 124.694C373.401 106.497 373.401 88.299 373.401 70.1014C373.401 64.7669 365.13 64.7669 365.13 70.1014Z" fill="#F64A4A"/>
<path d="M369.265 145.788C377.266 145.788 377.266 133.381 369.265 133.381C361.264 133.381 361.263 145.788 369.265 145.788Z" fill="#F64A4A"/>
</g>
<defs>
<clipPath id="clip0">
<rect width="567.789" height="350" fill="white"/>
</clipPath>
</defs>
</svg>
