<svg width="14" height="18" viewBox="0 0 14 18" fill="none" xmlns="http://www.w3.org/2000/svg">
  <path d="M1 16.9999L13 4.99988" stroke="#606060" stroke-miterlimit="10"/>
  <path d="M10.956 7.01384C10.112 5.51984 9.074 3.99184 8.238 2.76384C7.869 2.22084 7.543 1.72084 7.238 1.26384C7.194 1.19884 7.129 1.13384 7.064 1.08984C6.803 0.916839 6.455 1.00384 6.281 1.26384C5.998 1.71984 5.672 2.19884 5.281 2.76384C3.565 5.28484 1 9.08884 1 11.2618C1 12.8488 1.652 14.2828 2.695 15.3258M5.204 16.7848C5.699 16.9248 6.22 16.9998 6.76 16.9998C8.347 16.9998 9.781 16.3478 10.824 15.3048C11.867 14.2618 12.519 12.8268 12.519 11.2408C12.519 10.7998 12.413 10.2918 12.23 9.74184L5.204 16.7848Z" stroke="#606060" stroke-miterlimit="10"/>
</svg>
