<svg width="14" height="18" viewBox="0 0 14 18" fill="none" xmlns="http://www.w3.org/2000/svg">
  <path d="M6.76 16.9998C8.347 16.9998 9.781 16.3478 10.824 15.3048C11.867 14.2618 12.519 12.8268 12.519 11.2408C12.519 9.06784 9.954 5.28584 8.237 2.76484C7.868 2.22184 7.542 1.72184 7.237 1.26484C7.194 1.19884 7.129 1.13384 7.064 1.08984C6.803 0.916839 6.455 1.00384 6.281 1.26384C5.998 1.71984 5.672 2.19884 5.281 2.76384C3.565 5.28484 1 9.08884 1 11.2618C1 12.8488 1.652 14.2828 2.695 15.3258C3.739 16.3478 5.173 16.9998 6.76 16.9998Z" stroke="#606060" stroke-miterlimit="10"/>
</svg>
